<?xml version="1.0" ?><!DOCTYPE svg  PUBLIC '-//W3C//DTD SVG 1.1//EN'  'http://www.w3.org/Graphics/SVG/1.1/DTD/svg11.dtd'><svg height="512px" style="enable-background:new 0 0 512 512;" version="1.1" viewBox="0 0 512 512" width="512px" xml:space="preserve" xmlns="http://www.w3.org/2000/svg" xmlns:xlink="http://www.w3.org/1999/xlink"><g id="_x31_27_x2C__Basic_x2C__Watch_x2C__Time_x2C__Clock"><path d="M255.877,40.994c-49.763,0-98.338,17.482-136.778,49.226c-44.281,36.567-71.672,88.19-77.127,145.36   c-5.454,57.169,11.681,113.04,48.249,157.321c40.99,49.637,101.459,78.104,165.903,78.104c49.762,0,98.337-17.481,136.778-49.226   c91.411-75.487,104.366-211.27,28.879-302.682C380.79,69.462,320.32,40.994,255.877,40.994z M352.773,214.16l-90,60   c-0.839,0.56-1.806,0.84-2.773,0.84c-0.907,0-1.816-0.247-2.62-0.742l-130-80c-2.352-1.447-3.085-4.527-1.638-6.879   s4.527-3.085,6.879-1.638l127.272,78.321l87.334-58.223c2.299-1.532,5.401-0.911,6.934,1.387S355.071,212.628,352.773,214.16z"/></g><g id="Layer_1"/></svg>